{
	"asset":{
		"version":"2.0",
		"generator":"Houdini GLTF 2.0 Exporter"
	},
	"accessors":[
		{
			"bufferView":0,
			"componentType":5125,
			"count":44904,
			"type":"SCALAR",
			"min":[0
			],
			"max":[44903
			]
		},
		{
			"bufferView":1,
			"componentType":5126,
			"count":44904,
			"type":"SCALAR",
			"min":[0.146009728
			],
			"max":[0.999747574
			]
		},
		{
			"bufferView":2,
			"componentType":5126,
			"count":44904,
			"type":"VEC3",
			"min":[-2.63884711,1.36122477,-0.476897061
			],
			"max":[0.274477988,8.87080288,0.510811746
			]
		},
		{
			"bufferView":3,
			"componentType":5126,
			"count":44904,
			"type":"VEC3",
			"min":[0,0.616999984,0
			],
			"max":[0,0.617000103,0
			]
		},
		{
			"bufferView":4,
			"componentType":5126,
			"count":44904,
			"type":"SCALAR",
			"min":[0
			],
			"max":[1
			]
		},
		{
			"bufferView":5,
			"componentType":5126,
			"count":44904,
			"type":"SCALAR",
			"min":[0
			],
			"max":[0.66271466
			]
		},
		{
			"bufferView":6,
			"componentType":5126,
			"count":44904,
			"type":"SCALAR",
			"min":[0.146009728
			],
			"max":[0.999747574
			]
		},
		{
			"bufferView":7,
			"componentType":5126,
			"count":44904,
			"type":"VEC2",
			"min":[0,0
			],
			"max":[1,1
			]
		},
		{
			"bufferView":8,
			"componentType":5125,
			"count":44904,
			"type":"SCALAR",
			"min":[0
			],
			"max":[1
			]
		}
	],
	"buffers":[
		{
			"uri":"zwei_personen_mit_maske_data.bin",
			"byteLength":2514624,
			"name":"main_buffer"
		}
	],
	"bufferViews":[
		{
			"buffer":0,
			"byteLength":179616,
			"target":34963
		},
		{
			"buffer":0,
			"byteOffset":179616,
			"byteLength":179616,
			"target":34962
		},
		{
			"buffer":0,
			"byteOffset":359232,
			"byteLength":538848,
			"target":34962
		},
		{
			"buffer":0,
			"byteOffset":898080,
			"byteLength":538848,
			"target":34962
		},
		{
			"buffer":0,
			"byteOffset":1436928,
			"byteLength":179616,
			"target":34962
		},
		{
			"buffer":0,
			"byteOffset":1616544,
			"byteLength":179616,
			"target":34962
		},
		{
			"buffer":0,
			"byteOffset":1796160,
			"byteLength":179616,
			"target":34962
		},
		{
			"buffer":0,
			"byteOffset":1975776,
			"byteLength":359232,
			"target":34962
		},
		{
			"buffer":0,
			"byteOffset":2335008,
			"byteLength":179616,
			"target":34962
		}
	],
	"nodes":[
		{
			"name":"Line_Growth",
			"mesh":0
		},
		{
			"name":"Point_based_Distance_VDB_Growth"
		},
		{
			"name":"Curvature_Euler_Growth"
		},
		{
			"name":"sopnet1"
		},
		{
			"name":"Growth_2.0_Curvature_VEL_Based"
		},
		{
			"matrix":[1.29999995,0,0,0,0,1,0,0,0,0,1,0,0,0,0,1
			],
			"name":"grid1"
		},
		{
			"name":"geo1"
		}
	],
	"meshes":[
		{
			"primitives":[
				{
					"attributes":{
						"TEXCOORD_0":7,
						"_scale_mult":6,
						"_scale_mult_out":5,
						"_class":8,
						"_curveu":4,
						"COLOR_0":3,
						"POSITION":2,
						"_dist":1
					},
					"indices":0
				}
			]
		}
	],
	"scenes":[
		{
			"nodes":[0
			]
		}
	],
	"scene":0
}
