{
	"asset":{
		"version":"2.0",
		"generator":"Houdini GLTF 2.0 Exporter"
	},
	"accessors":[
		{
			"bufferView":0,
			"componentType":5125,
			"count":372912,
			"type":"SCALAR",
			"min":[0
			],
			"max":[372911
			]
		},
		{
			"bufferView":1,
			"componentType":5126,
			"count":372912,
			"type":"SCALAR",
			"min":[0.125
			],
			"max":[0.854401231
			]
		},
		{
			"bufferView":2,
			"componentType":5126,
			"count":372912,
			"type":"VEC3",
			"min":[-4.87947655,1.40734339,-0.801879823
			],
			"max":[0.721241534,8.75466251,0.809634686
			]
		},
		{
			"bufferView":3,
			"componentType":5126,
			"count":372912,
			"type":"VEC3",
			"min":[0,0,0
			],
			"max":[1.00000012,0.617000163,0.719775796
			]
		},
		{
			"bufferView":4,
			"componentType":5126,
			"count":372912,
			"type":"SCALAR",
			"min":[0.0346134491
			],
			"max":[0.611876547
			]
		},
		{
			"bufferView":5,
			"componentType":5126,
			"count":372912,
			"type":"SCALAR",
			"min":[0.011559112
			],
			"max":[0.463956147
			]
		},
		{
			"bufferView":6,
			"componentType":5126,
			"count":372912,
			"type":"SCALAR",
			"min":[0.125
			],
			"max":[0.854401231
			]
		},
		{
			"bufferView":7,
			"componentType":5125,
			"count":372912,
			"type":"SCALAR",
			"min":[0
			],
			"max":[5
			]
		}
	],
	"buffers":[
		{
			"uri":"drei_personen_ohne_maske_data.bin",
			"byteLength":17899776,
			"name":"main_buffer"
		}
	],
	"bufferViews":[
		{
			"buffer":0,
			"byteLength":1491648,
			"target":34963
		},
		{
			"buffer":0,
			"byteOffset":1491648,
			"byteLength":1491648,
			"target":34962
		},
		{
			"buffer":0,
			"byteOffset":2983296,
			"byteLength":4474944,
			"target":34962
		},
		{
			"buffer":0,
			"byteOffset":7458240,
			"byteLength":4474944,
			"target":34962
		},
		{
			"buffer":0,
			"byteOffset":11933184,
			"byteLength":1491648,
			"target":34962
		},
		{
			"buffer":0,
			"byteOffset":13424832,
			"byteLength":1491648,
			"target":34962
		},
		{
			"buffer":0,
			"byteOffset":14916480,
			"byteLength":1491648,
			"target":34962
		},
		{
			"buffer":0,
			"byteOffset":16408128,
			"byteLength":1491648,
			"target":34962
		}
	],
	"nodes":[
		{
			"name":"Line_Growth",
			"mesh":0
		},
		{
			"name":"Point_based_Distance_VDB_Growth"
		},
		{
			"name":"Curvature_Euler_Growth"
		},
		{
			"name":"sopnet1"
		},
		{
			"name":"Growth_2.0_Curvature_VEL_Based"
		},
		{
			"matrix":[1.29999995,0,0,0,0,1,0,0,0,0,1,0,0,0,0,1
			],
			"name":"grid1"
		},
		{
			"name":"geo1"
		}
	],
	"meshes":[
		{
			"primitives":[
				{
					"attributes":{
						"_scale_mult":6,
						"_dist":1,
						"_scale_mult_out":5,
						"_class":7,
						"_curveu":4,
						"COLOR_0":3,
						"POSITION":2
					},
					"indices":0
				}
			]
		}
	],
	"scenes":[
		{
			"nodes":[0
			]
		}
	],
	"scene":0
}
