<?xml version="1.0" standalone="no"?>
<!DOCTYPE svg PUBLIC "-//W3C//DTD SVG 20010904//EN"
 "http://www.w3.org/TR/2001/REC-SVG-20010904/DTD/svg10.dtd">
<svg version="1.0" xmlns="http://www.w3.org/2000/svg"
 width="500.000000pt" height="500.000000pt" viewBox="0 0 500.000000 500.000000"
 preserveAspectRatio="xMidYMid meet">
<metadata>
Created by potrace 1.11, written by Peter Selinger 2001-2013
</metadata>
<g transform="translate(0.000000,500.000000) scale(0.100000,-0.100000)"
fill="#000000" stroke="none">
<path d="M2722 4916 c-42 -11 -132 -83 -132 -106 0 -5 -5 -10 -11 -10 -5 0 -8
-4 -4 -9 3 -5 1 -12 -5 -16 -5 -3 -19 -25 -29 -48 -11 -23 -29 -52 -40 -64
-12 -12 -21 -25 -21 -28 0 -3 -11 -18 -25 -33 -14 -15 -28 -36 -32 -47 -3 -11
-29 -51 -58 -90 -29 -38 -76 -109 -104 -157 -29 -49 -55 -88 -59 -88 -4 0 -20
-26 -37 -58 -16 -31 -34 -60 -39 -64 -5 -3 -11 -15 -12 -25 -2 -9 -8 -19 -13
-21 -6 -2 -11 -10 -11 -17 0 -8 -6 -18 -12 -22 -7 -4 -22 -24 -32 -43 -10 -19
-27 -44 -37 -55 -19 -21 -69 -123 -69 -141 0 -5 -11 -39 -25 -75 -14 -35 -27
-75 -30 -87 -2 -13 -9 -29 -14 -36 -6 -7 -8 -15 -5 -19 3 -3 0 -16 -8 -29 -7
-12 -13 -30 -14 -38 -2 -8 -11 -38 -22 -67 -11 -28 -18 -54 -15 -56 2 -3 -2
-18 -11 -35 -8 -16 -13 -32 -10 -34 2 -3 -2 -11 -10 -17 -8 -7 -12 -19 -10
-26 3 -7 1 -23 -5 -34 -11 -20 -27 -191 -24 -261 9 -232 2 -262 -98 -412 -81
-121 -92 -129 -102 -77 -5 21 -13 39 -19 39 -6 0 -9 3 -5 6 6 6 -17 37 -46 63
-89 78 -84 75 -157 72 -37 -1 -106 -44 -125 -77 -5 -10 -16 -24 -22 -32 -7 -7
-18 -32 -24 -55 -6 -23 -16 -51 -22 -62 -6 -11 -12 -27 -13 -35 -6 -36 -15
-88 -21 -120 -13 -69 -19 -287 -10 -325 3 -11 11 -42 17 -70 22 -90 68 -183
122 -247 10 -12 18 -24 18 -27 0 -8 65 -52 82 -55 7 -2 20 -6 28 -9 26 -10
100 -13 100 -4 0 5 6 7 13 4 18 -6 92 48 115 85 11 18 23 49 26 68 5 37 42
155 55 180 4 8 23 20 42 27 19 6 48 17 64 24 17 7 33 13 38 14 4 2 8 3 10 5 3
2 36 9 67 14 14 2 47 11 74 20 27 9 50 15 52 14 2 -2 5 -17 8 -33 3 -17 14
-56 25 -87 11 -31 17 -59 14 -62 -3 -3 0 -12 7 -21 7 -8 9 -15 5 -15 -4 0 -3
-6 3 -12 5 -7 13 -29 16 -49 8 -50 15 -68 49 -117 16 -24 30 -49 31 -55 2 -7
8 -25 14 -40 7 -16 12 -31 12 -33 0 -3 18 -24 40 -46 22 -23 40 -47 40 -54 0
-7 4 -14 8 -16 12 -5 57 -88 77 -143 10 -27 23 -57 30 -65 12 -15 25 -45 24
-56 0 -3 6 -11 15 -17 17 -14 34 -147 19 -147 -5 0 -10 -6 -10 -12 -2 -19 -61
-186 -77 -217 -17 -31 -37 -98 -39 -128 -1 -13 -6 -23 -11 -23 -5 0 -6 -3 -3
-6 4 -4 -9 -37 -28 -73 -20 -37 -37 -76 -39 -87 -3 -10 -9 -39 -15 -63 -6 -29
-6 -51 0 -63 5 -10 7 -18 4 -18 -8 0 31 -37 61 -56 29 -20 42 -22 124 -25 30
0 57 -5 60 -9 3 -5 37 -11 75 -13 39 -3 70 -6 70 -7 0 -1 13 -3 30 -5 16 -1
31 -7 33 -14 2 -6 8 -8 14 -5 15 10 108 10 108 1 0 -5 6 -5 12 -1 11 7 53 10
61 4 7 -5 106 -9 307 -12 124 -2 231 -7 238 -11 6 -5 12 -4 12 0 0 5 20 8 45
8 25 -1 45 3 45 8 0 5 9 7 20 4 11 -3 23 -1 26 4 4 6 11 6 19 -1 11 -9 21 -4
45 22 38 39 49 64 45 104 -5 46 -17 94 -25 99 -5 3 0 23 11 45 15 30 20 67 23
162 3 114 8 160 22 198 3 8 8 33 11 55 3 22 10 49 16 60 6 11 13 34 14 50 3
26 8 49 18 88 2 4 4 8 5 10 3 3 9 53 14 122 4 60 13 113 21 125 2 4 7 22 10
41 3 19 10 61 16 93 6 33 12 87 14 120 4 72 13 143 21 170 3 10 8 46 11 80 5
79 9 120 12 126 5 11 12 89 15 165 2 44 6 94 10 110 5 24 17 164 18 210 0 15
-11 115 -18 157 -3 21 -5 41 -4 44 1 4 -3 10 -9 14 -6 3 -13 16 -15 27 -3 11
-15 40 -27 64 -13 24 -24 46 -25 49 -1 3 -5 15 -9 28 -4 12 -12 22 -17 22 -5
0 -6 4 -3 10 10 17 -67 147 -120 204 -63 66 -114 128 -142 174 -12 19 -26 38
-30 41 -27 18 -59 189 -36 192 35 6 72 4 93 -4 14 -6 43 -11 65 -13 22 -1 40
-3 40 -4 0 -1 8 -3 18 -5 9 -2 17 1 17 6 0 6 4 8 8 5 13 -8 71 25 74 42 6 31
-42 106 -100 156 -7 6 -22 19 -33 29 -10 9 -22 17 -26 17 -5 0 -21 10 -38 22
-16 13 -33 22 -37 20 -5 -1 -8 3 -8 8 0 6 -7 10 -15 10 -8 0 -15 4 -15 10 0 5
-12 13 -26 16 -15 4 -35 15 -46 26 -10 10 -23 16 -28 13 -6 -3 -21 5 -35 19
-26 26 -41 34 -30 16 3 -6 -1 -7 -10 -4 -9 4 -13 9 -11 12 6 6 -41 32 -58 32
-6 0 -33 11 -59 23 -26 13 -63 23 -82 22 -19 0 -35 3 -35 8 0 5 -7 4 -15 -3
-8 -7 -24 -10 -34 -7 -34 9 -57 -22 -52 -68 1 -9 16 -29 61 -82 5 -7 10 -15
10 -18 0 -4 12 -21 26 -40 14 -18 26 -46 26 -62 1 -32 -29 -103 -43 -103 -5 0
-9 -6 -9 -12 0 -12 -50 -118 -60 -128 -3 -3 -20 -35 -38 -72 -18 -37 -39 -71
-46 -75 -6 -5 -30 -39 -53 -78 -23 -38 -52 -79 -65 -91 -12 -12 -39 -40 -58
-62 -21 -26 -38 -38 -43 -33 -33 33 -14 837 21 895 2 5 6 28 8 52 1 24 6 48 9
54 4 6 9 34 12 63 3 29 8 54 12 57 3 3 6 21 7 40 1 46 13 185 19 230 3 19 8
49 10 65 7 46 16 88 22 105 8 19 7 17 21 65 6 22 13 54 15 71 3 17 9 40 15 50
5 11 10 22 11 27 1 4 1 8 2 10 7 21 8 97 1 97 -5 0 -9 11 -9 25 0 26 -60 88
-76 78 -4 -2 -13 -1 -20 5 -7 5 -28 5 -55 -2z"/>
</g>
</svg>
