{
	"asset":{
		"version":"2.0",
		"generator":"Houdini GLTF 2.0 Exporter"
	},
	"accessors":[
		{
			"bufferView":0,
			"componentType":5125,
			"count":611892,
			"type":"SCALAR",
			"min":[0
			],
			"max":[611891
			]
		},
		{
			"bufferView":1,
			"componentType":5126,
			"count":611892,
			"type":"SCALAR",
			"min":[0.125
			],
			"max":[0.986222506
			]
		},
		{
			"bufferView":2,
			"componentType":5126,
			"count":611892,
			"type":"VEC3",
			"min":[-6.78051472,1.39745152,-0.810307324
			],
			"max":[0.84653008,8.77180958,0.98767072
			]
		},
		{
			"bufferView":3,
			"componentType":5126,
			"count":611892,
			"type":"VEC3",
			"min":[0,6.4651427e-40,0
			],
			"max":[1.00000012,0.617000163,0.672838271
			]
		},
		{
			"bufferView":4,
			"componentType":5126,
			"count":611892,
			"type":"SCALAR",
			"min":[0.0309479982
			],
			"max":[0.624897361
			]
		},
		{
			"bufferView":5,
			"componentType":5126,
			"count":611892,
			"type":"SCALAR",
			"min":[0
			],
			"max":[0.655251205
			]
		},
		{
			"bufferView":6,
			"componentType":5126,
			"count":611892,
			"type":"SCALAR",
			"min":[0.125
			],
			"max":[0.986222506
			]
		},
		{
			"bufferView":7,
			"componentType":5125,
			"count":611892,
			"type":"SCALAR",
			"min":[0
			],
			"max":[6
			]
		}
	],
	"buffers":[
		{
			"uri":"vier_personen_ohne_maske_data.bin",
			"byteLength":29370816,
			"name":"main_buffer"
		}
	],
	"bufferViews":[
		{
			"buffer":0,
			"byteLength":2447568,
			"target":34963
		},
		{
			"buffer":0,
			"byteOffset":2447568,
			"byteLength":2447568,
			"target":34962
		},
		{
			"buffer":0,
			"byteOffset":4895136,
			"byteLength":7342704,
			"target":34962
		},
		{
			"buffer":0,
			"byteOffset":12237840,
			"byteLength":7342704,
			"target":34962
		},
		{
			"buffer":0,
			"byteOffset":19580544,
			"byteLength":2447568,
			"target":34962
		},
		{
			"buffer":0,
			"byteOffset":22028112,
			"byteLength":2447568,
			"target":34962
		},
		{
			"buffer":0,
			"byteOffset":24475680,
			"byteLength":2447568,
			"target":34962
		},
		{
			"buffer":0,
			"byteOffset":26923248,
			"byteLength":2447568,
			"target":34962
		}
	],
	"nodes":[
		{
			"name":"Line_Growth",
			"mesh":0
		},
		{
			"name":"Point_based_Distance_VDB_Growth"
		},
		{
			"name":"Curvature_Euler_Growth"
		},
		{
			"name":"sopnet1"
		},
		{
			"name":"Growth_2.0_Curvature_VEL_Based"
		},
		{
			"matrix":[1.29999995,0,0,0,0,1,0,0,0,0,1,0,0,0,0,1
			],
			"name":"grid1"
		},
		{
			"name":"geo1"
		}
	],
	"meshes":[
		{
			"primitives":[
				{
					"attributes":{
						"_scale_mult":6,
						"_dist":1,
						"_scale_mult_out":5,
						"_class":7,
						"_curveu":4,
						"COLOR_0":3,
						"POSITION":2
					},
					"indices":0
				}
			]
		}
	],
	"scenes":[
		{
			"nodes":[0
			]
		}
	],
	"scene":0
}
