{
	"asset":{
		"version":"2.0",
		"generator":"Houdini GLTF 2.0 Exporter"
	},
	"accessors":[
		{
			"bufferView":0,
			"componentType":5125,
			"count":65628,
			"type":"SCALAR",
			"min":[0
			],
			"max":[65627
			]
		},
		{
			"bufferView":1,
			"componentType":5126,
			"count":65628,
			"type":"SCALAR",
			"min":[0.183367237
			],
			"max":[1
			]
		},
		{
			"bufferView":2,
			"componentType":5126,
			"count":65628,
			"type":"VEC3",
			"min":[-4.56827307,1.39005136,-0.531650424
			],
			"max":[0.191939726,8.86598682,0.51986146
			]
		},
		{
			"bufferView":3,
			"componentType":5126,
			"count":65628,
			"type":"VEC3",
			"min":[0,0.616999984,0
			],
			"max":[0,0.617000103,0
			]
		},
		{
			"bufferView":4,
			"componentType":5126,
			"count":65628,
			"type":"SCALAR",
			"min":[0
			],
			"max":[1
			]
		},
		{
			"bufferView":5,
			"componentType":5126,
			"count":65628,
			"type":"SCALAR",
			"min":[0
			],
			"max":[0.558661342
			]
		},
		{
			"bufferView":6,
			"componentType":5126,
			"count":65628,
			"type":"SCALAR",
			"min":[0.183367237
			],
			"max":[1
			]
		},
		{
			"bufferView":7,
			"componentType":5126,
			"count":65628,
			"type":"VEC2",
			"min":[0,0
			],
			"max":[1,1
			]
		},
		{
			"bufferView":8,
			"componentType":5125,
			"count":65628,
			"type":"SCALAR",
			"min":[0
			],
			"max":[2
			]
		}
	],
	"buffers":[
		{
			"uri":"drei_personen_mit_maske_data.bin",
			"byteLength":3675168,
			"name":"main_buffer"
		}
	],
	"bufferViews":[
		{
			"buffer":0,
			"byteLength":262512,
			"target":34963
		},
		{
			"buffer":0,
			"byteOffset":262512,
			"byteLength":262512,
			"target":34962
		},
		{
			"buffer":0,
			"byteOffset":525024,
			"byteLength":787536,
			"target":34962
		},
		{
			"buffer":0,
			"byteOffset":1312560,
			"byteLength":787536,
			"target":34962
		},
		{
			"buffer":0,
			"byteOffset":2100096,
			"byteLength":262512,
			"target":34962
		},
		{
			"buffer":0,
			"byteOffset":2362608,
			"byteLength":262512,
			"target":34962
		},
		{
			"buffer":0,
			"byteOffset":2625120,
			"byteLength":262512,
			"target":34962
		},
		{
			"buffer":0,
			"byteOffset":2887632,
			"byteLength":525024,
			"target":34962
		},
		{
			"buffer":0,
			"byteOffset":3412656,
			"byteLength":262512,
			"target":34962
		}
	],
	"nodes":[
		{
			"name":"Line_Growth",
			"mesh":0
		},
		{
			"name":"Point_based_Distance_VDB_Growth"
		},
		{
			"name":"Curvature_Euler_Growth"
		},
		{
			"name":"sopnet1"
		},
		{
			"name":"Growth_2.0_Curvature_VEL_Based"
		},
		{
			"matrix":[1.29999995,0,0,0,0,1,0,0,0,0,1,0,0,0,0,1
			],
			"name":"grid1"
		},
		{
			"name":"geo1"
		}
	],
	"meshes":[
		{
			"primitives":[
				{
					"attributes":{
						"TEXCOORD_0":7,
						"_scale_mult":6,
						"_scale_mult_out":5,
						"_class":8,
						"_curveu":4,
						"COLOR_0":3,
						"POSITION":2,
						"_dist":1
					},
					"indices":0
				}
			]
		}
	],
	"scenes":[
		{
			"nodes":[0
			]
		}
	],
	"scene":0
}
