{
	"asset":{
		"version":"2.0",
		"generator":"Houdini GLTF 2.0 Exporter"
	},
	"accessors":[
		{
			"bufferView":0,
			"componentType":5125,
			"count":87120,
			"type":"SCALAR",
			"min":[0
			],
			"max":[87119
			]
		},
		{
			"bufferView":1,
			"componentType":5126,
			"count":87120,
			"type":"SCALAR",
			"min":[0.183367237
			],
			"max":[1
			]
		},
		{
			"bufferView":2,
			"componentType":5126,
			"count":87120,
			"type":"VEC3",
			"min":[-6.59210634,1.39005136,-0.531650424
			],
			"max":[0.191939726,8.86598682,0.51986146
			]
		},
		{
			"bufferView":3,
			"componentType":5126,
			"count":87120,
			"type":"VEC3",
			"min":[0,0.616999984,0
			],
			"max":[0,0.617000103,0
			]
		},
		{
			"bufferView":4,
			"componentType":5126,
			"count":87120,
			"type":"SCALAR",
			"min":[0
			],
			"max":[1
			]
		},
		{
			"bufferView":5,
			"componentType":5126,
			"count":87120,
			"type":"SCALAR",
			"min":[0
			],
			"max":[0.558661342
			]
		},
		{
			"bufferView":6,
			"componentType":5126,
			"count":87120,
			"type":"SCALAR",
			"min":[0.183367237
			],
			"max":[1
			]
		},
		{
			"bufferView":7,
			"componentType":5126,
			"count":87120,
			"type":"VEC2",
			"min":[0,0
			],
			"max":[1,1
			]
		},
		{
			"bufferView":8,
			"componentType":5125,
			"count":87120,
			"type":"SCALAR",
			"min":[0
			],
			"max":[3
			]
		}
	],
	"buffers":[
		{
			"uri":"vier_personen_mit_maske_data.bin",
			"byteLength":4878720,
			"name":"main_buffer"
		}
	],
	"bufferViews":[
		{
			"buffer":0,
			"byteLength":348480,
			"target":34963
		},
		{
			"buffer":0,
			"byteOffset":348480,
			"byteLength":348480,
			"target":34962
		},
		{
			"buffer":0,
			"byteOffset":696960,
			"byteLength":1045440,
			"target":34962
		},
		{
			"buffer":0,
			"byteOffset":1742400,
			"byteLength":1045440,
			"target":34962
		},
		{
			"buffer":0,
			"byteOffset":2787840,
			"byteLength":348480,
			"target":34962
		},
		{
			"buffer":0,
			"byteOffset":3136320,
			"byteLength":348480,
			"target":34962
		},
		{
			"buffer":0,
			"byteOffset":3484800,
			"byteLength":348480,
			"target":34962
		},
		{
			"buffer":0,
			"byteOffset":3833280,
			"byteLength":696960,
			"target":34962
		},
		{
			"buffer":0,
			"byteOffset":4530240,
			"byteLength":348480,
			"target":34962
		}
	],
	"nodes":[
		{
			"name":"Line_Growth",
			"mesh":0
		},
		{
			"name":"Point_based_Distance_VDB_Growth"
		},
		{
			"name":"Curvature_Euler_Growth"
		},
		{
			"name":"sopnet1"
		},
		{
			"name":"Growth_2.0_Curvature_VEL_Based"
		},
		{
			"matrix":[1.29999995,0,0,0,0,1,0,0,0,0,1,0,0,0,0,1
			],
			"name":"grid1"
		},
		{
			"name":"geo1"
		}
	],
	"meshes":[
		{
			"primitives":[
				{
					"attributes":{
						"TEXCOORD_0":7,
						"_scale_mult":6,
						"_scale_mult_out":5,
						"_class":8,
						"_curveu":4,
						"COLOR_0":3,
						"POSITION":2,
						"_dist":1
					},
					"indices":0
				}
			]
		}
	],
	"scenes":[
		{
			"nodes":[0
			]
		}
	],
	"scene":0
}
