{
	"asset":{
		"version":"2.0",
		"generator":"Houdini GLTF 2.0 Exporter"
	},
	"accessors":[
		{
			"bufferView":0,
			"componentType":5125,
			"count":980460,
			"type":"SCALAR",
			"min":[0
			],
			"max":[163409
			]
		},
		{
			"bufferView":1,
			"componentType":5126,
			"count":163410,
			"type":"VEC3",
			"min":[-2.0236094,-0.46497044,-4.90568686
			],
			"max":[0.215978876,1.20350313,-0.768603742
			]
		}
	],
	"buffers":[
		{
			"uri":"skulpturen_sonja_data.bin",
			"byteLength":5882760,
			"name":"main_buffer"
		}
	],
	"bufferViews":[
		{
			"buffer":0,
			"byteLength":3921840,
			"target":34963
		},
		{
			"buffer":0,
			"byteOffset":3921840,
			"byteLength":1960920,
			"target":34962
		}
	],
	"nodes":[
		{
			"name":"file1",
			"mesh":0
		}
	],
	"meshes":[
		{
			"primitives":[
				{
					"attributes":{
						"POSITION":1
					},
					"indices":0
				}
			]
		}
	],
	"scenes":[
		{
			"nodes":[0
			]
		}
	],
	"scene":0
}
