{
	"asset":{
		"version":"2.0",
		"generator":"Houdini GLTF 2.0 Exporter"
	},
	"accessors":[
		{
			"bufferView":0,
			"componentType":5125,
			"count":297168,
			"type":"SCALAR",
			"min":[0
			],
			"max":[297167
			]
		},
		{
			"bufferView":1,
			"componentType":5126,
			"count":297168,
			"type":"SCALAR",
			"min":[0.127425432
			],
			"max":[0.900016248
			]
		},
		{
			"bufferView":2,
			"componentType":5126,
			"count":297168,
			"type":"VEC3",
			"min":[-3.01611018,1.40708935,-0.801055968
			],
			"max":[0.720573246,8.75484562,0.810662687
			]
		},
		{
			"bufferView":3,
			"componentType":5126,
			"count":297168,
			"type":"VEC3",
			"min":[2.89083676e-17,1.84162711e-16,2.5372423e-15
			],
			"max":[0.997838855,0.617000103,0.720743239
			]
		},
		{
			"bufferView":4,
			"componentType":5126,
			"count":297168,
			"type":"SCALAR",
			"min":[0.0346134491
			],
			"max":[0.611876547
			]
		},
		{
			"bufferView":5,
			"componentType":5126,
			"count":297168,
			"type":"SCALAR",
			"min":[0.0116343293
			],
			"max":[0.463956147
			]
		},
		{
			"bufferView":6,
			"componentType":5126,
			"count":297168,
			"type":"SCALAR",
			"min":[0.127425432
			],
			"max":[0.900016248
			]
		},
		{
			"bufferView":7,
			"componentType":5125,
			"count":297168,
			"type":"SCALAR",
			"min":[0
			],
			"max":[2
			]
		}
	],
	"buffers":[
		{
			"uri":"zwei_personen_ohne_maske_data.bin",
			"byteLength":14264064,
			"name":"main_buffer"
		}
	],
	"bufferViews":[
		{
			"buffer":0,
			"byteLength":1188672,
			"target":34963
		},
		{
			"buffer":0,
			"byteOffset":1188672,
			"byteLength":1188672,
			"target":34962
		},
		{
			"buffer":0,
			"byteOffset":2377344,
			"byteLength":3566016,
			"target":34962
		},
		{
			"buffer":0,
			"byteOffset":5943360,
			"byteLength":3566016,
			"target":34962
		},
		{
			"buffer":0,
			"byteOffset":9509376,
			"byteLength":1188672,
			"target":34962
		},
		{
			"buffer":0,
			"byteOffset":10698048,
			"byteLength":1188672,
			"target":34962
		},
		{
			"buffer":0,
			"byteOffset":11886720,
			"byteLength":1188672,
			"target":34962
		},
		{
			"buffer":0,
			"byteOffset":13075392,
			"byteLength":1188672,
			"target":34962
		}
	],
	"nodes":[
		{
			"name":"Line_Growth",
			"mesh":0
		},
		{
			"name":"Point_based_Distance_VDB_Growth"
		},
		{
			"name":"Curvature_Euler_Growth"
		},
		{
			"name":"sopnet1"
		},
		{
			"name":"Growth_2.0_Curvature_VEL_Based"
		},
		{
			"matrix":[1.29999995,0,0,0,0,1,0,0,0,0,1,0,0,0,0,1
			],
			"name":"grid1"
		},
		{
			"name":"geo1"
		}
	],
	"meshes":[
		{
			"primitives":[
				{
					"attributes":{
						"_scale_mult":6,
						"_dist":1,
						"_scale_mult_out":5,
						"_class":7,
						"_curveu":4,
						"COLOR_0":3,
						"POSITION":2
					},
					"indices":0
				}
			]
		}
	],
	"scenes":[
		{
			"nodes":[0
			]
		}
	],
	"scene":0
}
